# xmcd
#
# Track frame offsets: 
#        150
#        28712
#        42387
#        60685
#        79930
#        101005
#        120760
#        140027
#        151937
#        174217
#        186270
#
# Disc length: 2736 seconds
#
# Revision: 6
# Processed by: cddbd v1.5.1PL0 Copyright (c) Steve Scherf et al.
# Submitted via: ExactAudioCopy v0.95a3
#
DISCID=8b0aae0b
DTITLE=Various Artist - Windham Hill - Records Sampler '86
DYEAR=1986
DGENRE=New Age
TTITLE0=Welcoming - Michael Manring
TTITLE1=Devotion - Liz Story
TTITLE2=Engravings - Stein, Ira and Walder, Russel
TTITLE3=Dolphins - Marshall, Mike and Anger, Darol
TTITLE4=Gwenlaise - Scott Cossu
TTITLE5=Another Country - Shadowfax
TTITLE6=Hot Beach - Interior
TTITLE7=New Waltz - Malcolm Dalglish
TTITLE8=Marias River Breakdown - Philip Aaberg
TTITLE9=Pittsburgh 1901 (Theme from Mrs. Soffel) - Mark Isham
TTITLE10=Near Northern - Darol Anger and Barbara Higbie Quintet
EXTD=YEAR: 1986
EXTT0=
EXTT1=
EXTT2=
EXTT3=
EXTT4=
EXTT5=
EXTT6=
EXTT7=
EXTT8=
EXTT9=
EXTT10=
PLAYORDER=
